<svg width="117" height="15" viewBox="0 0 117 15" fill="none" xmlns="http://www.w3.org/2000/svg">
<path d="M14.24 14.1L14.22 0.0999999H13.38L7.12 10.92L0.86 0.0999999H0V14.1H1V2.16L6.86 12.24H7.36L13.22 2.12L13.24 14.1H14.24Z" fill="#070D17"/>
<path d="M22.8011 14.2C26.2611 14.2 27.8411 12.48 27.8411 10.5C27.8411 5.42 19.1011 7.9 19.1011 3.7C19.1011 2.16 20.3211 0.9 23.0411 0.9C24.3011 0.9 25.7211 1.28 26.8811 2.08L27.2611 1.26C26.1811 0.48 24.5811 0 23.0411 0C19.6011 0 18.0811 1.74 18.0811 3.72C18.0811 8.88 26.8211 6.36 26.8211 10.56C26.8211 12.08 25.5811 13.3 22.7811 13.3C20.9011 13.3 19.1211 12.54 18.1611 11.54L17.7011 12.3C18.7211 13.42 20.7211 14.2 22.8011 14.2Z" fill="#070D17"/>
<path d="M41.4886 14.1H42.7286L36.1486 6.46L42.3086 0.0999999H41.0686L32.3286 9.1V0.0999999H31.3086V14.1H32.3286V10.42L35.4686 7.2L41.4886 14.1Z" fill="#070D17"/>
<path d="M57.7885 10.76H50.7885L49.4085 14H46.7285L53.0285 0H55.5885L61.9085 14H59.1885L57.7885 10.76ZM56.9285 8.72L54.2885 2.6L51.6685 8.72H56.9285Z" fill="#070D17"/>
<path d="M69.449 0C70.6623 0 71.7157 0.2 72.609 0.6C73.5157 1 74.209 1.57333 74.689 2.32C75.169 3.06667 75.409 3.95333 75.409 4.98C75.409 5.99333 75.169 6.88 74.689 7.64C74.209 8.38667 73.5157 8.96 72.609 9.36C71.7157 9.76 70.6623 9.96 69.449 9.96H66.289V14H63.689V0H69.449ZM69.329 7.76C70.4623 7.76 71.3223 7.52 71.909 7.04C72.4957 6.56 72.789 5.87333 72.789 4.98C72.789 4.08667 72.4957 3.4 71.909 2.92C71.3223 2.44 70.4623 2.2 69.329 2.2H66.289V7.76H69.329Z" fill="#070D17"/>
<path d="M86.3823 10.76H79.3823L78.0023 14H75.3223L81.6223 0H84.1823L90.5023 14H87.7823L86.3823 10.76ZM85.5223 8.72L82.8823 2.6L80.2623 8.72H85.5223Z" fill="#070D17"/>
<path d="M101.443 14L98.5827 9.9C98.4627 9.91333 98.2827 9.92 98.0427 9.92H94.8827V14H92.2827V0H98.0427C99.2561 0 100.309 0.2 101.203 0.6C102.109 1 102.803 1.57333 103.283 2.32C103.763 3.06667 104.003 3.95333 104.003 4.98C104.003 6.03333 103.743 6.94 103.223 7.7C102.716 8.46 101.983 9.02667 101.023 9.4L104.243 14H101.443ZM101.383 4.98C101.383 4.08667 101.089 3.4 100.503 2.92C99.9161 2.44 99.0561 2.2 97.9227 2.2H94.8827V7.78H97.9227C99.0561 7.78 99.9161 7.54 100.503 7.06C101.089 6.56667 101.383 5.87333 101.383 4.98Z" fill="#070D17"/>
<path d="M109.556 2.2H104.916V0H116.796V2.2H112.156V14H109.556V2.2Z" fill="#070D17"/>
</svg>
