<svg width="121" height="24" viewBox="0 0 121 24" fill="none" xmlns="http://www.w3.org/2000/svg">
<path d="M16.68 19L16.66 5H15.82L9.56 15.82L3.3 5H2.44V19H3.44V7.06L9.3 17.14H9.8L15.66 7.02L15.68 19H16.68ZM25.2411 19.1C28.7011 19.1 30.2811 17.38 30.2811 15.4C30.2811 10.32 21.5411 12.8 21.5411 8.6C21.5411 7.06 22.7611 5.8 25.4811 5.8C26.7411 5.8 28.1611 6.18 29.3211 6.98L29.7011 6.16C28.6211 5.38 27.0211 4.9 25.4811 4.9C22.0411 4.9 20.5211 6.64 20.5211 8.62C20.5211 13.78 29.2611 11.26 29.2611 15.46C29.2611 16.98 28.0211 18.2 25.2211 18.2C23.3411 18.2 21.5611 17.44 20.6011 16.44L20.1411 17.2C21.1611 18.32 23.1611 19.1 25.2411 19.1ZM43.9286 19H45.1686L38.5886 11.36L44.7486 5H43.5086L34.7686 14V5H33.7486V19H34.7686V15.32L37.9086 12.1L43.9286 19Z" fill="#070D17"/>
<path d="M60.96 15.76H53.96L52.58 19H49.9L56.2 5H58.76L65.08 19H62.36L60.96 15.76ZM60.1 13.72L57.46 7.6L54.84 13.72H60.1ZM72.6205 5C73.8338 5 74.8871 5.2 75.7805 5.6C76.6871 6 77.3805 6.57333 77.8605 7.32C78.3405 8.06667 78.5805 8.95333 78.5805 9.98C78.5805 10.9933 78.3405 11.88 77.8605 12.64C77.3805 13.3867 76.6871 13.96 75.7805 14.36C74.8871 14.76 73.8338 14.96 72.6205 14.96H69.4605V19H66.8605V5H72.6205ZM72.5005 12.76C73.6338 12.76 74.4938 12.52 75.0805 12.04C75.6671 11.56 75.9605 10.8733 75.9605 9.98C75.9605 9.08667 75.6671 8.4 75.0805 7.92C74.4938 7.44 73.6338 7.2 72.5005 7.2H69.4605V12.76H72.5005ZM89.5538 15.76H82.5538L81.1738 19H78.4937L84.7938 5H87.3538L93.6738 19H90.9538L89.5538 15.76ZM88.6937 13.72L86.0538 7.6L83.4338 13.72H88.6937ZM104.614 19L101.754 14.9C101.634 14.9133 101.454 14.92 101.214 14.92H98.0542V19H95.4542V5H101.214C102.428 5 103.481 5.2 104.374 5.6C105.281 6 105.974 6.57333 106.454 7.32C106.934 8.06667 107.174 8.95333 107.174 9.98C107.174 11.0333 106.914 11.94 106.394 12.7C105.888 13.46 105.154 14.0267 104.194 14.4L107.414 19H104.614ZM104.554 9.98C104.554 9.08667 104.261 8.4 103.674 7.92C103.088 7.44 102.228 7.2 101.094 7.2H98.0542V12.78H101.094C102.228 12.78 103.088 12.54 103.674 12.06C104.261 11.5667 104.554 10.8733 104.554 9.98ZM112.728 7.2H108.088V5H119.968V7.2H115.328V19H112.728V7.2Z" fill="#070D17"/>
</svg>
